# xmcd
#
# Track frame offsets:
#	150
#	21794
#	35444
#	57958
#	91862
#	107157
#	124857
#	143283
#	175989
#	195125
#	222261
#	232420
#	245392
#	268882
#	287476
#	303748
#
# Disc length: 4299 seconds
#
# Revision: 0
# Processed by: cddbd v1.5.2PL0 Copyright (c) Steve Scherf et al.
# Submitted via: EasyCDDAExtractor 11.5.0.1
#
DISCID=e210c910
DTITLE=ManSound - Voyage
DYEAR=2008
DGENRE=Vocal
TTITLE0=Mas Que Nada
TTITLE1=Crazy Little Thing Called Love
TTITLE2=How Deep Is Your Love
TTITLE3=Spain (I Can Recall)
TTITLE4=Air On G String
TTITLE5=The Windmills Of Your Mind
TTITLE6=Beyond The Sea
TTITLE7=Yddishe Mama - HavaNagila
TTITLE8=Tetri Rashi
TTITLE9=Amore No - Non Voglio - Mica La Luna - Susanna
TTITLE10=Labi Saju
TTITLE11=Черный пёс - Песенка шофера - Эй, моряк
TTITLE12=Не Метелиця Лугом Стелиться
TTITLE13=Зачарованная Моя
TTITLE14=Червона Рута
TTITLE15=Con Te Partiro
EXTD=
EXTT0=
EXTT1=
EXTT2=
EXTT3=
EXTT4=
EXTT5=
EXTT6=
EXTT7=
EXTT8=
EXTT9=
EXTT10=
EXTT11=
EXTT12=
EXTT13=
EXTT14=
EXTT15=
PLAYORDER=
